<svg width="792" height="792" viewBox="0 0 792 792" fill="none" xmlns="http://www.w3.org/2000/svg">
  <path d="M0 91C0 40.7421 40.7421 0 91 0H701C751.258 0 792 40.7421 792 91V701C792 751.258 751.258 792 701 792H91C40.7421 792 0 751.258 0 701V91Z" fill="black"/>
  <path d="M157 466C154.8 466 153.4 465 152.8 463L109.6 315.7L109.3 314.5C109.3 312.5 110.4 311.5 112.6 311.5H148.9C151.1 311.5 152.5 312.5 153.1 314.5L174.7 405.1C174.9 405.7 175.2 406 175.6 406C176 406 176.3 405.7 176.5 405.1L199 314.5C199.6 312.5 201 311.5 203.2 311.5H234.7C236.9 311.5 238.3 312.5 238.9 314.5L262.6 405.4C262.8 406 263.1 406.3 263.5 406.3C263.9 406.3 264.2 406 264.4 405.4L287.8 314.5C288.4 312.5 289.8 311.5 292 311.5L328 312.1C329.2 312.1 330 312.5 330.4 313.3C331 313.9 331.2 314.8 331 316L287.2 463C286.6 465 285.3 466 283.3 466H247C244.8 466 243.4 465 242.8 463L219.7 382.6C219.5 382 219.2 381.7 218.8 381.7C218.4 381.7 218.1 382 217.9 382.6L197.5 463C196.9 465 195.5 466 193.3 466H157ZM334.661 525.7C334.061 525.7 333.561 525.3 333.161 524.5C332.761 523.9 332.561 523.1 332.561 522.1V494.5C332.561 493.5 332.861 492.6 333.461 491.8C334.261 491.2 335.161 490.9 336.161 490.9C344.561 490.7 351.161 490 355.961 488.8C360.961 487.6 364.861 485.3 367.661 481.9C370.661 478.5 372.961 473.5 374.561 466.9C374.761 466.5 374.761 465.9 374.561 465.1L325.361 315.7C325.161 315.3 325.061 314.8 325.061 314.2C325.061 312.4 326.161 311.5 328.361 311.5H365.861C368.061 311.5 369.461 312.5 370.061 314.5L395.261 411.7C395.461 412.3 395.761 412.6 396.161 412.6C396.561 412.6 396.861 412.3 397.061 411.7L422.261 314.5C422.861 312.5 424.261 311.5 426.461 311.5H463.061C464.261 311.5 465.061 311.9 465.461 312.7C466.061 313.3 466.161 314.3 465.761 315.7L413.861 471.7C408.861 486.3 403.761 497.2 398.561 504.4C393.361 511.8 386.061 517.2 376.661 520.6C367.261 524 353.961 525.7 336.761 525.7H334.661ZM507.133 466C504.933 466 503.533 465 502.933 463L459.733 315.7L459.433 314.5C459.433 312.5 460.533 311.5 462.733 311.5H499.033C501.233 311.5 502.633 312.5 503.233 314.5L524.833 405.1C525.033 405.7 525.333 406 525.733 406C526.133 406 526.433 405.7 526.633 405.1L549.133 314.5C549.733 312.5 551.133 311.5 553.333 311.5H584.833C587.033 311.5 588.433 312.5 589.033 314.5L612.733 405.4C612.933 406 613.233 406.3 613.633 406.3C614.033 406.3 614.333 406 614.533 405.4L637.933 314.5C638.533 312.5 639.933 311.5 642.133 311.5L678.133 312.1C679.333 312.1 680.133 312.5 680.533 313.3C681.133 313.9 681.333 314.8 681.133 316L637.333 463C636.733 465 635.433 466 633.433 466H597.133C594.933 466 593.533 465 592.933 463L569.833 382.6C569.633 382 569.333 381.7 568.933 381.7C568.533 381.7 568.233 382 568.033 382.6L547.633 463C547.033 465 545.633 466 543.433 466H507.133Z" fill="white"/>
  <path d="M698.254 467.2C691.454 467.2 685.754 465 681.154 460.6C676.754 456 674.554 450.3 674.554 443.5C674.554 436.5 676.754 430.8 681.154 426.4C685.554 422 691.254 419.8 698.254 419.8C705.254 419.8 710.954 422 715.354 426.4C719.754 430.8 721.954 436.5 721.954 443.5C721.954 450.3 719.654 456 715.054 460.6C710.654 465 705.054 467.2 698.254 467.2Z" fill="#06DDFF"/>
</svg>
